# xmcd
# 
# Track frame offsets:
#     150
#     20501
#     38780
#     58259
#     72805
#     98829
#     111769
#     124704
#     142184
#     155750
#     170477
# 
# Disc length: 2515
# 
# Revision: 1
# Processed by: cddbd v1.5.2PL0 Copyright (c) Steve Scherf et al.
# Submitted via: fre:ac v1.0.27
# 
DISCID=9c09d10b
DTITLE=Davis Coen - Blues Lights For Yours And Mine
DYEAR=2008
DGENRE=Blues
TTITLE0=Basement With Blue Light
TTITLE1=Mambo Jumbo
TTITLE2=Jack Of Diamnds
TTITLE3=New Shoe Blues
TTITLE4=Accelerated Woman
TTITLE5=Don't Let Your Deal Go Down
TTITLE6=Baby, Let Me Hold Your Hand
TTITLE7=Lordy Lord
TTITLE8=Since I Laid My Burden Down
TTITLE9=Down In The Alley
TTITLE10=C.C. Rider
EXTD=
EXTT0=
EXTT1=
EXTT2=
EXTT3=
EXTT4=
EXTT5=
EXTT6=
EXTT7=
EXTT8=
EXTT9=
EXTT10=
PLAYORDER=
